<?xml version="1.0" encoding="iso-8859-1"?>
<!-- Generator: Adobe Illustrator 19.0.0, SVG Export Plug-In . SVG Version: 6.00 Build 0)  -->
<svg version="1.1" id="Layer_1" xmlns="http://www.w3.org/2000/svg" xmlns:xlink="http://www.w3.org/1999/xlink" x="0px" y="0px"
	 viewBox="0 0 512 512" style="enable-background:new 0 0 512 512;" xml:space="preserve">
<path style="fill:#D35B38;" d="M236,10.199c146.797,0,265.8,119.003,265.8,265.8H236V10.199z"/>
<path style="fill:#BCC987;" d="M461.802,276c0,124.707-101.095,225.801-225.801,225.801S10.199,400.706,10.199,276
	S111.294,50.198,236,50.198V276H461.802z"/>
<g>
	<path style="fill:#FFAD61;" d="M418.092,228.927H317.049v-68.173c0-27.92,22.566-50.555,50.487-50.555l0,0
		c27.92,0,50.555,22.634,50.555,50.555V228.927z"/>
	<circle style="fill:#FFAD61;" cx="367.538" cy="48.293" r="31.524"/>
	<path style="fill:#FFAD61;" d="M208.049,378.588H107.007v-68.173c0-27.92,22.566-50.555,50.487-50.555l0,0
		c27.92,0,50.555,22.634,50.555,50.555V378.588z"/>
	<circle style="fill:#FFAD61;" cx="157.496" cy="197.956" r="31.524"/>
</g>
<g>
	<path style="fill:#4D3D36;" d="M482.007,150.748c-17.878-35.045-43.51-66.336-74.386-90.902c1.059-3.67,1.638-7.541,1.638-11.548
		c0-23.006-18.718-41.723-41.723-41.723c-11.746,0-22.367,4.887-29.957,12.726C305.267,6.493,271.13,0,236,0
		c-5.632,0-10.199,4.566-10.199,10.199v30.028c-59.209,2.501-114.517,26.732-156.678,68.894C24.548,153.697,0,212.961,0,276
		s24.548,122.303,69.122,166.877C113.698,487.452,172.962,512,236,512s122.304-24.548,166.878-69.123
		c42.161-42.161,66.392-97.469,68.894-156.678h30.028c5.632,0,10.199-4.566,10.199-10.199
		C512,231.903,501.909,189.763,482.007,150.748z M367.536,26.973c11.759,0,21.324,9.566,21.324,21.324s-9.566,21.324-21.324,21.324
		c-11.759,0-21.324-9.566-21.324-21.324S355.778,26.973,367.536,26.973z M236,491.602c-118.884,0-215.602-96.719-215.602-215.602
		c0-115.465,91.234-210.023,205.403-215.364V276c0,5.633,4.567,10.199,10.199,10.199h215.364
		C446.023,400.367,351.467,491.602,236,491.602z M246.2,265.8V20.596c27.963,1.087,55.167,6.668,81.122,16.611
		c-0.976,3.534-1.508,7.25-1.508,11.09c0,23.006,18.718,41.723,41.723,41.723c11.581,0,22.072-4.746,29.639-12.391
		c57.489,46.661,91.37,114.303,94.229,188.171H246.2z"/>
	<path style="fill:#4D3D36;" d="M447.529,239.127c5.632,0,10.199-4.566,10.199-10.199c0-5.633-4.567-10.199-10.199-10.199h-19.238
		v-57.973c0-33.5-27.254-60.755-60.754-60.755c-33.463,0-60.686,27.254-60.686,60.755v57.973h-19.238
		c-5.632,0-10.199,4.566-10.199,10.199c0,5.633,4.567,10.199,10.199,10.199H447.529z M327.249,218.729v-57.973
		c0-22.253,18.073-40.356,40.288-40.356c22.252,0,40.355,18.104,40.355,40.356v57.973H327.249z"/>
	<path style="fill:#4D3D36;" d="M237.487,388.788c5.632,0,10.199-4.566,10.199-10.199s-4.567-10.199-10.199-10.199H218.25v-57.974
		c0-33.5-27.254-60.754-60.754-60.754c-33.463,0-60.686,27.254-60.686,60.754v57.974H77.57c-5.632,0-10.199,4.566-10.199,10.199
		s4.567,10.199,10.199,10.199H237.487z M117.207,368.389v-57.974c0-22.252,18.073-40.355,40.288-40.355
		c22.252,0,40.355,18.104,40.355,40.355v57.974H117.207z"/>
	<path style="fill:#4D3D36;" d="M157.495,239.681c23.006,0,41.723-18.718,41.723-41.723s-18.718-41.723-41.723-41.723
		s-41.723,18.718-41.723,41.723S134.489,239.681,157.495,239.681z M157.495,176.634c11.759,0,21.324,9.566,21.324,21.324
		s-9.566,21.324-21.324,21.324s-21.324-9.566-21.324-21.324S145.736,176.634,157.495,176.634z"/>
	<path style="fill:#4D3D36;" d="M271.299,388.788h5.081c5.632,0,10.199-4.566,10.199-10.199s-4.567-10.199-10.199-10.199h-5.081
		c-5.632,0-10.199,4.566-10.199,10.199S265.667,388.788,271.299,388.788z"/>
</g>
<g>
</g>
<g>
</g>
<g>
</g>
<g>
</g>
<g>
</g>
<g>
</g>
<g>
</g>
<g>
</g>
<g>
</g>
<g>
</g>
<g>
</g>
<g>
</g>
<g>
</g>
<g>
</g>
<g>
</g>
</svg>
